<?xml version="1.0" encoding="UTF-8"?>
<svg xmlns="http://www.w3.org/2000/svg" viewBox="0 0 729.4 445.53">
  <defs>
    <style>
      .cls-1 {
        letter-spacing: .01em;
      }

      .cls-2 {
        font-size: 4.62px;
      }

      .cls-2, .cls-3, .cls-4 {
        fill: #231f20;
        font-family: MyriadPro-Regular, 'Myriad Pro';
      }

      .cls-5 {
        letter-spacing: .01em;
      }

      .cls-6 {
        stroke-dasharray: 0 0 3.16 3.16;
      }

      .cls-6, .cls-7, .cls-8, .cls-9, .cls-10 {
        fill: none;
        stroke-width: .25px;
      }

      .cls-6, .cls-7, .cls-9 {
        stroke: #a7a9ac;
      }

      .cls-6, .cls-7, .cls-9, .cls-10 {
        stroke-miterlimit: 10;
      }

      .cls-11 {
        letter-spacing: 0em;
      }

      .cls-12 {
        letter-spacing: 0em;
      }

      .cls-13 {
        letter-spacing: 0em;
      }

      .cls-14 {
        letter-spacing: .02em;
      }

      .cls-15 {
        letter-spacing: -.01em;
      }

      .cls-16 {
        letter-spacing: -.01em;
      }

      .cls-17 {
        letter-spacing: 0em;
      }

      .cls-18 {
        letter-spacing: 0em;
      }

      .cls-19 {
        letter-spacing: 0em;
      }

      .cls-20 {
        letter-spacing: 0em;
      }

      .cls-21 {
        letter-spacing: 0em;
      }

      .cls-22 {
        letter-spacing: 0em;
      }

      .cls-7 {
        stroke-dasharray: 0 3;
      }

      .cls-8 {
        stroke: #000;
        stroke-linecap: round;
        stroke-linejoin: round;
      }

      .cls-23 {
        letter-spacing: 0em;
      }

      .cls-3 {
        font-size: 6px;
      }

      .cls-4 {
        font-size: 12px;
      }

      .cls-24 {
        letter-spacing: -.07em;
      }

      .cls-25 {
        fill: #bcbec0;
      }

      .cls-25, .cls-26 {
        stroke-width: 0px;
      }

      .cls-26 {
        fill: #a7a9ac;
      }

      .cls-27 {
        letter-spacing: 0em;
      }

      .cls-10 {
        stroke: #231f20;
      }
    </style>
  </defs>
  <g id="Spacing_Text_etc" data-name="Spacing, Text, etc">
    <text class="cls-3" transform="translate(78.86 17.71) rotate(-90)"><tspan class="cls-11" x="0" y="0">B</tspan><tspan x="3.28" y="0">e</tspan><tspan class="cls-20" x="6.28" y="0">z</tspan><tspan x="8.81" y="0">el</tspan></text>
    <text class="cls-3" transform="translate(88.23 17.25) rotate(-90)"><tspan class="cls-16" x="0" y="0">C</tspan><tspan x="3.41" y="0">u</tspan><tspan class="cls-13" x="6.71" y="0">t</tspan><tspan x="8.66" y="0">out</tspan></text>
    <text class="cls-3" transform="translate(97.15 17.25) rotate(-90)"><tspan class="cls-5" x="0" y="0">R</tspan><tspan x="3.3" y="0">ack</tspan></text>
    <text class="cls-4" transform="translate(684.02 98.37)"><tspan x="0" y="0">GMC 507</tspan></text>
    <text class="cls-4" transform="translate(664.11 242.62)"><tspan x="0" y="0">GPS 175</tspan></text>
    <text class="cls-4" transform="translate(0 354.61)"><tspan x="0" y="0">G</tspan><tspan class="cls-14" x="7.75" y="0">T</tspan><tspan class="cls-21" x="13.98" y="0">X 320A</tspan><tspan x="0" y="14.4">w/new </tspan><tspan class="cls-27" x="37" y="14.4">r</tspan><tspan x="40.86" y="14.4">ack</tspan></text>
    <text class="cls-3" transform="translate(642.13 180.27)"><tspan x="0" y="0">.02 Spa</tspan><tspan class="cls-19" x="17.93" y="0">c</tspan><tspan x="20.59" y="0">e</tspan></text>
    <rect id="GMC507_to_GPS175_Space" data-name="GMC507 to GPS175 Space" class="cls-25" x="184.19" y="173.61" width="453.6" height="1.44"/>
    <text class="cls-4" transform="translate(4.34 64.88)"><tspan x="0" y="0">GMC 507</tspan></text>
    <text class="cls-2" transform="translate(31.18 94.08)"><tspan class="cls-12" x="0" y="0">B</tspan><tspan x="2.52" y="0">e</tspan><tspan class="cls-23" x="4.84" y="0">z</tspan><tspan x="6.78" y="0" xml:space="preserve">el    2.1</tspan><tspan class="cls-15" x="0" y="5.54">C</tspan><tspan class="cls-22" x="2.62" y="5.54">u</tspan><tspan class="cls-17" x="5.17" y="5.54">t</tspan><tspan x="6.67" y="5.54">out 2.12</tspan><tspan class="cls-1" x="0" y="11.09">R</tspan><tspan class="cls-18" x="2.54" y="11.09" xml:space="preserve">ack     2.095</tspan><tspan x="0" y="16.63">w/</tspan><tspan class="cls-24" x="4.98" y="16.63">T</tspan><tspan x="6.95" y="16.63">op Dimple</tspan></text>
    <text class="cls-2" transform="translate(693.43 108.01)"><tspan class="cls-12" x="0" y="0">B</tspan><tspan x="2.52" y="0">e</tspan><tspan class="cls-23" x="4.84" y="0">z</tspan><tspan x="6.78" y="0" xml:space="preserve">el    6.25</tspan><tspan class="cls-15" x="0" y="5.54">C</tspan><tspan class="cls-22" x="2.62" y="5.54">u</tspan><tspan class="cls-17" x="5.17" y="5.54">t</tspan><tspan x="6.67" y="5.54">out 6.21</tspan><tspan class="cls-1" x="0" y="11.09">R</tspan><tspan class="cls-18" x="2.54" y="11.09" xml:space="preserve">ack     6.3</tspan></text>
    <text class="cls-2" transform="translate(33.44 257.31)"><tspan class="cls-12" x="0" y="0">B</tspan><tspan x="2.52" y="0">e</tspan><tspan class="cls-23" x="4.84" y="0">z</tspan><tspan x="6.78" y="0" xml:space="preserve">el    2.02</tspan><tspan class="cls-15" x="0" y="5.54">C</tspan><tspan class="cls-22" x="2.62" y="5.54">u</tspan><tspan class="cls-17" x="5.17" y="5.54">t</tspan><tspan x="6.67" y="5.54">out 1.98</tspan><tspan class="cls-1" x="0" y="11.09">R</tspan><tspan class="cls-18" x="2.54" y="11.09" xml:space="preserve">ack     2.025</tspan><tspan x="0" y="16.63">w/Dimples</tspan></text>
    <text class="cls-4" transform="translate(12.49 231.55)"><tspan x="0" y="0">GPS 175</tspan></text>
    <text class="cls-2" transform="translate(21.21 388.29)"><tspan class="cls-12" x="0" y="0">B</tspan><tspan x="2.52" y="0">e</tspan><tspan class="cls-23" x="4.84" y="0">z</tspan><tspan x="6.78" y="0" xml:space="preserve">el    1.63</tspan><tspan class="cls-15" x="0" y="5.54">C</tspan><tspan class="cls-22" x="2.62" y="5.54">u</tspan><tspan class="cls-17" x="5.17" y="5.54">t</tspan><tspan x="6.67" y="5.54">out 1.60</tspan><tspan class="cls-1" x="0" y="11.09">R</tspan><tspan class="cls-18" x="2.54" y="11.09" xml:space="preserve">ack     1.71</tspan><tspan x="0" y="16.63">No</tspan><tspan class="cls-17" x="5.58" y="16.63">t</tspan><tspan x="7.08" y="16.63" xml:space="preserve">ch     .05</tspan><tspan x="0" y="22.18">w/Dimples</tspan></text>
    <text class="cls-3" transform="translate(43.08 178.48)"><tspan x="0" y="0">.02 Spa</tspan><tspan class="cls-19" x="17.93" y="0">c</tspan><tspan x="20.59" y="0">e</tspan></text>
    <text class="cls-3" transform="translate(41.41 328.22)"><tspan x="0" y="0">.02 Spa</tspan><tspan class="cls-19" x="17.93" y="0">c</tspan><tspan x="20.59" y="0">e</tspan></text>
    <rect id="_.02_Space" data-name=".02 Space" class="cls-26" x="184.19" y="320.85" width="453.6" height="1.44"/>
    <text class="cls-4" transform="translate(668.87 358.62)"><tspan x="0" y="0">G</tspan><tspan class="cls-14" x="7.75" y="0">T</tspan><tspan class="cls-21" x="13.98" y="0">X 320A</tspan><tspan x="0" y="14.4">w/new </tspan><tspan class="cls-27" x="37" y="14.4">r</tspan><tspan x="40.86" y="14.4">ack</tspan></text>
    <text class="cls-3" transform="translate(642.44 325.89)"><tspan x="0" y="0">.02 Spa</tspan><tspan class="cls-19" x="17.93" y="0">c</tspan><tspan x="20.59" y="0">e</tspan></text>
    <text class="cls-2" transform="translate(681.49 255.07)"><tspan class="cls-12" x="0" y="0">B</tspan><tspan x="2.52" y="0">e</tspan><tspan class="cls-23" x="4.84" y="0">z</tspan><tspan x="6.78" y="0" xml:space="preserve">el    6.25</tspan><tspan class="cls-15" x="0" y="5.54">C</tspan><tspan class="cls-22" x="2.62" y="5.54">u</tspan><tspan class="cls-17" x="5.17" y="5.54">t</tspan><tspan x="6.67" y="5.54">out 6.25</tspan><tspan class="cls-1" x="0" y="11.09">R</tspan><tspan class="cls-18" x="2.54" y="11.09" xml:space="preserve">ack     6.3</tspan></text>
    <text class="cls-2" transform="translate(681.65 387.45)"><tspan class="cls-12" x="0" y="0">B</tspan><tspan x="2.52" y="0">e</tspan><tspan class="cls-23" x="4.84" y="0">z</tspan><tspan x="6.78" y="0" xml:space="preserve">el    6.25</tspan><tspan class="cls-15" x="0" y="5.54">C</tspan><tspan class="cls-22" x="2.62" y="5.54">u</tspan><tspan class="cls-17" x="5.17" y="5.54">t</tspan><tspan x="6.67" y="5.54">out 6.18</tspan><tspan class="cls-1" x="0" y="11.09">R</tspan><tspan class="cls-18" x="2.54" y="11.09" xml:space="preserve">ack     6.3</tspan><tspan x="0" y="16.63">No</tspan><tspan class="cls-17" x="5.58" y="16.63">t</tspan><tspan x="7.08" y="16.63" xml:space="preserve">ch  .75 @2.45</tspan></text>
    <g>
      <line class="cls-9" x1="86.49" y1="22.05" x2="87.99" y2="22.05"/>
      <line class="cls-6" x1="91.15" y1="22.05" x2="127.44" y2="22.05"/>
      <line class="cls-9" x1="129.02" y1="22.05" x2="130.52" y2="22.05"/>
    </g>
    <g>
      <line class="cls-9" x1="86.45" y1="441.45" x2="87.95" y2="441.45"/>
      <line class="cls-6" x1="91.11" y1="441.45" x2="127.4" y2="441.45"/>
      <line class="cls-9" x1="128.98" y1="441.45" x2="130.48" y2="441.45"/>
    </g>
    <g>
      <line class="cls-9" x1="86.45" y1="445.05" x2="87.95" y2="445.05"/>
      <line class="cls-6" x1="91.11" y1="445.05" x2="127.4" y2="445.05"/>
      <line class="cls-9" x1="128.98" y1="445.05" x2="130.48" y2="445.05"/>
    </g>
    <line class="cls-7" x1="117.81" y1="22.05" x2="117.81" y2="441.45"/>
    <line class="cls-7" x1="126" y1="22.05" x2="126" y2="445.05"/>
    <text class="cls-4" transform="translate(113.43 207.53) rotate(-90)"><tspan x="0" y="0">5.825</tspan></text>
    <text class="cls-4" transform="translate(135.78 207.43) rotate(-90)"><tspan x="0" y="0">5.875</tspan></text>
    <rect id="GPS175-GTX320A_Spacing" data-name="GPS175-GTX320A Spacing" class="cls-25" x="86.44" y="320.85" width="14.4" height="1.44"/>
    <rect id="GMC507-GPS175_Spacing" data-name="GMC507-GPS175 Spacing" class="cls-25" x="86.45" y="173.61" width="14.4" height="1.44"/>
  </g>
  <g id="GTX320A">
    <g id="GTX320A_Front" data-name="GTX320A Front">
      <rect id="GTX320A_Notch" data-name="GTX320A Notch" class="cls-10" x="364.91" y="441.45" width="54" height="3.6"/>
      <rect id="GTX320A_Cutout" data-name="GTX320A Cutout" class="cls-10" x="188.51" y="326.25" width="444.96" height="115.2"/>
      <rect id="GTX320A_Rack_w_Dimples" data-name="GTX320A Rack w/Dimples" class="cls-10" x="184.19" y="322.29" width="453.6" height="123.12"/>
      <rect id="GTX320A_Bezel" data-name="GTX320A Bezel" class="cls-10" x="185.99" y="325.17" width="450" height="117.36"/>
    </g>
    <g id="GTX320A_Side" data-name="GTX320A Side">
      <rect id="Notch" class="cls-10" x="81.94" y="441.45" width="4.46" height="3.6"/>
      <rect class="cls-8" x="67.54" y="325.17" width="14.4" height="117.36"/>
      <rect class="cls-8" x="81.94" y="326.25" width="4.46" height="115.2"/>
      <rect class="cls-8" x="86.44" y="322.29" width="14.4" height="123.12"/>
    </g>
  </g>
  <g id="GPS175">
    <g id="GPS175_Front" data-name="GPS175 Front">
      <rect id="GPS175_Cutout" data-name="GPS175 Cutout" class="cls-10" x="185.99" y="176.67" width="450" height="142.56"/>
      <rect id="GPS175_Rack_w_Dimples" data-name="GPS175 Rack w/Dimples" class="cls-10" x="184.19" y="175.05" width="453.6" height="145.8"/>
      <rect id="GPS175_Bezel" data-name="GPS175 Bezel" class="cls-10" x="185.99" y="175.23" width="450" height="145.44"/>
    </g>
    <g id="GPS175_Side" data-name="GPS175 Side">
      <rect id="GPS175_Bezel-2" data-name="GPS175 Bezel" class="cls-8" x="67.54" y="175.23" width="14.4" height="145.44"/>
      <rect id="GPS175_Cutout-2" data-name="GPS175 Cutout" class="cls-8" x="81.94" y="176.67" width="4.46" height="142.56"/>
      <rect id="GPS175_Rack" data-name="GPS175 Rack" class="cls-8" x="86.44" y="175.05" width="14.4" height="145.8"/>
    </g>
  </g>
  <g id="GMC507">
    <g id="GMC507_Front" data-name="GMC507 Front">
      <rect id="GMC507_Cutout" data-name="GMC507 Cutout" class="cls-10" x="187.43" y="22.05" width="447.12" height="152.64"/>
      <rect id="GMC507_Rack_w_Dimple" data-name="GMC507 Rack w/Dimple" class="cls-10" x="184.19" y="22.77" width="453.6" height="150.84"/>
      <rect id="GMC507_Bezel" data-name="GMC507 Bezel" class="cls-10" x="185.99" y="22.77" width="450" height="151.2"/>
    </g>
    <g id="GMC507_Side" data-name="GMC507 Side">
      <rect id="GMC507_Bezel-2" data-name="GMC507 Bezel" class="cls-8" x="67.55" y="22.77" width="14.4" height="151.2"/>
      <rect id="GMC507_Cutout-2" data-name="GMC507 Cutout" class="cls-8" x="81.95" y="22.05" width="4.54" height="152.64"/>
      <rect id="GMC507_Rack" data-name="GMC507 Rack" class="cls-8" x="86.45" y="22.77" width="14.4" height="150.84"/>
    </g>
  </g>
</svg>